<svg width="298" height="169" viewBox="0 0 298 169" fill="none" xmlns="http://www.w3.org/2000/svg">
<g clip-path="url(#clip0_67_79)">
<rect width="298" height="169" rx="84.5" fill="black"/>
<mask id="path-2-outside-1_67_79" maskUnits="userSpaceOnUse" x="132" y="11" width="94" height="152" fill="black">
<rect fill="white" x="132" y="11" width="94" height="152"/>
<path d="M179 161C165 161 154 157.067 146 149.2C138 141.333 134 130.6 134 117H152C152 125.933 154.333 132.867 159 137.8C163.8 142.6 170.467 145 179 145C187.533 145 194.133 142.6 198.8 137.8C203.6 132.867 206 125.933 206 117V29.4H171V13H224V117C224 130.6 219.933 141.333 211.8 149.2C203.8 157.067 192.867 161 179 161Z"/>
</mask>
<path d="M179 161C165 161 154 157.067 146 149.2C138 141.333 134 130.6 134 117H152C152 125.933 154.333 132.867 159 137.8C163.8 142.6 170.467 145 179 145C187.533 145 194.133 142.6 198.8 137.8C203.6 132.867 206 125.933 206 117V29.4H171V13H224V117C224 130.6 219.933 141.333 211.8 149.2C203.8 157.067 192.867 161 179 161Z" fill="white"/>
<path d="M146 149.2L147.402 147.774L147.402 147.774L146 149.2ZM134 117V115H132V117H134ZM152 117H154V115H152V117ZM159 137.8L157.547 139.174L157.566 139.195L157.586 139.214L159 137.8ZM198.8 137.8L197.367 136.405L197.366 136.406L198.8 137.8ZM206 29.4H208V27.4H206V29.4ZM171 29.4H169V31.4H171V29.4ZM171 13V11H169V13H171ZM224 13H226V11H224V13ZM211.8 149.2L210.41 147.762L210.404 147.768L210.398 147.774L211.8 149.2ZM179 159C165.388 159 154.941 155.187 147.402 147.774L144.598 150.626C153.059 158.947 164.612 163 179 163V159ZM147.402 147.774C139.863 140.361 136 130.185 136 117H132C132 131.015 136.137 142.306 144.598 150.626L147.402 147.774ZM134 119H152V115H134V119ZM150 117C150 126.279 152.43 133.764 157.547 139.174L160.453 136.426C156.237 131.969 154 125.588 154 117H150ZM157.586 139.214C162.852 144.48 170.08 147 179 147V143C170.853 143 164.748 140.72 160.414 136.386L157.586 139.214ZM179 147C187.917 147 195.094 144.481 200.234 139.194L197.366 136.406C193.173 140.719 187.15 143 179 143V147ZM200.233 139.195C205.495 133.787 208 126.293 208 117H204C204 125.574 201.705 131.947 197.367 136.405L200.233 139.195ZM208 117V29.4H204V117H208ZM206 27.4H171V31.4H206V27.4ZM173 29.4V13H169V29.4H173ZM171 15H224V11H171V15ZM222 13V117H226V13H222ZM222 117C222 130.176 218.076 140.347 210.41 147.762L213.19 150.638C221.791 142.319 226 131.024 226 117H222ZM210.398 147.774C202.856 155.19 192.473 159 179 159V163C193.26 163 204.744 158.943 213.202 150.626L210.398 147.774Z" fill="black" mask="url(#path-2-outside-1_67_79)"/>
<path d="M82.9648 161.004C92.8607 161.004 102.984 158.758 113.336 154.266C123.753 149.708 131.988 143.035 138.043 134.246C138.043 133.4 137.652 132.684 136.871 132.098C136.155 131.512 135.341 131.219 134.43 131.219C124.664 143.068 110.309 148.992 91.3633 148.992C71.3763 148.992 56.2721 142.97 46.0508 130.926C35.8945 118.816 30.8164 103.777 30.8164 85.8086C30.8164 77.6706 31.6953 69.8255 33.4531 62.2734C35.276 54.6562 38.0755 47.3971 41.8516 40.4961C45.6927 33.5299 51.1289 27.8984 58.1602 23.6016C65.2565 19.3047 73.5247 17.1562 82.9648 17.1562C89.4102 17.1562 95.3672 18.1654 100.836 20.1836C106.305 22.2018 110.797 24.5781 114.312 27.3125C117.828 30.0469 121.246 33.7253 124.566 38.3477C127.952 42.9049 130.491 46.8763 132.184 50.2617C133.941 53.582 136.025 57.8138 138.434 62.957C140.387 62.6966 141.591 61.9805 142.047 60.8086C137.229 41.4727 129.938 28.224 120.172 21.0625C110.471 13.8359 98.069 10.2227 82.9648 10.2227C76.8451 10.2227 70.5951 10.9714 64.2148 12.4688C57.8346 13.901 51.2591 16.5052 44.4883 20.2812C37.7826 23.9922 31.8581 28.6146 26.7148 34.1484C21.5716 39.6172 17.3398 46.8438 14.0195 55.8281C10.6992 64.7474 9.03906 74.7409 9.03906 85.8086C9.03906 96.8763 10.6992 106.87 14.0195 115.789C17.3398 124.708 21.5716 131.902 26.7148 137.371C31.8581 142.84 37.7826 147.43 44.4883 151.141C51.2591 154.786 57.8346 157.326 64.2148 158.758C70.5951 160.255 76.8451 161.004 82.9648 161.004ZM135.992 67.3516C133.193 61.1016 130.621 55.9583 128.277 51.9219C125.934 47.8203 122.809 43.263 118.902 38.25C114.996 33.1719 110.341 29.2331 104.938 26.4336C99.5339 23.6341 93.4792 21.9414 86.7734 21.3555C79.3516 21.9414 72.8737 24.3177 67.3398 28.4844C61.806 32.5859 57.5091 37.8594 54.4492 44.3047C51.4544 50.75 49.2409 57.4557 47.8086 64.4219C46.4414 71.3229 45.7578 78.4518 45.7578 85.8086C45.7578 102.215 49.8919 115.984 58.1602 127.117C66.4284 138.25 78.7656 144.207 95.1719 144.988C111.057 144.207 123.525 138.283 132.574 127.215C135.113 127.215 137.327 128.061 139.215 129.754C141.103 131.382 142.047 133.335 142.047 135.613C135.471 145.184 126.585 152.475 115.387 157.488C104.189 162.501 93.3815 165.008 82.9648 165.008C76.4544 165.008 69.8464 164.227 63.1406 162.664C56.5 161.167 49.599 158.497 42.4375 154.656C35.3411 150.75 29.0586 145.9 23.5898 140.105C18.1211 134.311 13.6615 126.727 10.2109 117.352C6.76042 107.911 5.03516 97.3971 5.03516 85.8086C5.03516 73.6992 6.82552 62.8919 10.4062 53.3867C13.987 43.8164 18.5768 36.1667 24.1758 30.4375C29.7747 24.7083 36.3177 19.9557 43.8047 16.1797C51.2917 12.3385 58.5508 9.73438 65.582 8.36719C72.6784 6.9349 79.8073 6.21875 86.9688 6.21875C96.7344 6.21875 107.346 7.52083 118.805 10.125C130.263 12.7292 138.466 14.3568 143.414 15.0078C141.266 23.4062 140.419 30.7956 140.875 37.1758C141.331 43.4909 143.186 51.2383 146.441 60.418C144.553 64.2591 141.07 66.5703 135.992 67.3516Z" fill="white"/>
<rect x="132" y="18" width="5" height="5" rx="2.5" fill="#18191A"/>
<path d="M0 177V88.5M0 88.5V0V90.5H289L0 88.5ZM289 0V177" stroke="black" stroke-width="5"/>
<path d="M54.2891 90.9219L52.9062 98H49.4609L52.6602 81.4883H56.1172L54.8398 88.0625H62.1758L63.4531 81.4883H66.7812L63.5703 98H60.2422L61.625 90.9219H54.2891ZM73.4688 91.7422L72.2617 98H68.8047L72.0156 81.4883H79.6445C80.8945 81.4883 81.9609 81.6797 82.8438 82.0625C83.7266 82.4453 84.3984 82.9922 84.8594 83.7031C85.3203 84.4141 85.5508 85.25 85.5508 86.2109C85.5508 87.5 85.125 88.5938 84.2734 89.4922C83.4297 90.3906 82.2812 90.9492 80.8281 91.168L84.0391 98H80.2188L77.5234 91.7422H73.4688ZM78.6016 89.0469C79.7344 89.0469 80.5898 88.8203 81.168 88.3672C81.7539 87.9062 82.0469 87.2539 82.0469 86.4102C82.0469 85.6836 81.7969 85.1289 81.2969 84.7461C80.8047 84.3633 80.1094 84.1719 79.2109 84.1719H74.9453L73.9961 89.0469H78.6016ZM94.8047 81.4883L91.5938 98H88.1484L91.3477 81.4883H94.8047ZM103.438 98.2344C101.352 98.2344 99.7617 97.8672 98.668 97.1328C97.5742 96.3906 96.918 95.2539 96.6992 93.7227L100.086 93.1484C100.25 94.0156 100.613 94.6484 101.176 95.0469C101.746 95.4453 102.578 95.6445 103.672 95.6445C105.023 95.6445 106.035 95.4531 106.707 95.0703C107.379 94.6797 107.715 94.0938 107.715 93.3125C107.715 93 107.656 92.7188 107.539 92.4688C107.422 92.2188 107.246 92.0039 107.012 91.8242C106.777 91.6445 106.426 91.4648 105.957 91.2852C105.496 91.1055 104.918 90.9297 104.223 90.7578C102.793 90.375 101.73 89.9766 101.035 89.5625C100.348 89.1484 99.8203 88.6445 99.4531 88.0508C99.0859 87.4492 98.9023 86.7148 98.9023 85.8477C98.9023 84.9258 99.1797 84.1211 99.7344 83.4336C100.297 82.7383 101.082 82.1992 102.09 81.8164C103.098 81.4336 104.273 81.2422 105.617 81.2422C107.477 81.2422 108.969 81.582 110.094 82.2617C111.219 82.9336 111.91 83.918 112.168 85.2148L108.793 86C108.621 85.2969 108.246 84.7383 107.668 84.3242C107.098 83.9023 106.352 83.6914 105.43 83.6914C104.461 83.6914 103.699 83.875 103.145 84.2422C102.59 84.6016 102.312 85.0977 102.312 85.7305C102.312 86.0977 102.414 86.4102 102.617 86.668C102.82 86.9258 103.117 87.1484 103.508 87.3359C103.703 87.4375 103.992 87.5508 104.375 87.6758C104.766 87.8008 105.25 87.9414 105.828 88.0977C107.07 88.4414 107.988 88.7656 108.582 89.0703C109.176 89.3672 109.652 89.7031 110.012 90.0781C110.363 90.4531 110.633 90.8828 110.82 91.3672C111.008 91.8516 111.102 92.4102 111.102 93.043C111.102 94.7305 110.453 96.0195 109.156 96.9102C107.859 97.793 105.953 98.2344 103.438 98.2344ZM124.902 84.1602L122.207 98H118.75L121.445 84.1602H116.113L116.629 81.4883H130.762L130.246 84.1602H124.902ZM138.164 81.4883L134.953 98H131.508L134.707 81.4883H138.164ZM171.336 87.5469L169.297 98H166.227L169.438 81.4883H173.539L177.957 94.8594C178.074 94.0547 178.164 93.4453 178.227 93.0312C178.297 92.6094 178.367 92.2188 178.438 91.8594L180.477 81.4883H183.547L180.336 98H176.164L171.781 84.7461C171.695 85.3789 171.613 85.9297 171.535 86.3984C171.465 86.8672 171.398 87.25 171.336 87.5469Z" fill="#CFB7B7"/>
<path d="M251.156 90.9219L249.773 98H246.328L249.527 81.4883H252.984L251.707 88.0625H259.043L260.32 81.4883H263.648L260.438 98H257.109L258.492 90.9219H251.156ZM270.781 87.5469L268.742 98H265.672L268.883 81.4883H272.984L277.402 94.8594C277.52 94.0547 277.609 93.4453 277.672 93.0312C277.742 92.6094 277.812 92.2188 277.883 91.8594L279.922 81.4883H282.992L279.781 98H275.609L271.227 84.7461C271.141 85.3789 271.059 85.9297 270.98 86.3984C270.91 86.8672 270.844 87.25 270.781 87.5469Z" fill="#FFF4F4"/>
<rect width="5" height="5" rx="2.5" transform="matrix(1 0 0 -1 174 23)" fill="#13B8E3"/>
<rect width="5" height="5" rx="2.5" transform="matrix(1 0 0 -1 208 48)" fill="#13B8E3"/>
<rect width="5" height="5" rx="2.5" transform="matrix(1 0 0 -1 218 43)" fill="#13B8E3"/>
<rect width="5" height="5" rx="2.5" transform="matrix(1 0 0 -1 191 28)" fill="#13B8E3"/>
<rect width="5" height="5" rx="2.5" transform="matrix(1 0 0 -1 185 19)" fill="#13B8E3"/>
<rect width="5" height="5" rx="2.5" transform="matrix(1 0 0 -1 212 59)" fill="#13B8E3"/>
<path d="M179 20.5H215V54" stroke="#13B8E3"/>
<path d="M220 39V27.5L215 21V33L210.5 39V47.5" stroke="#0B0A0A"/>
<path d="M195.5 25.5H207L213.5 20.5H201.5L195.5 16H187" stroke="#13B8E3"/>
<path d="M220 39V27.5L215 21V33L210.5 39V47.5" stroke="#13B8E3"/>
<path d="M241.336 87.56C241.264 87.5366 241.192 87.5136 241.121 87.491C240.888 87.4179 240.748 87.1776 240.801 86.9397V86.9397C241.281 84.6572 240.965 82.8229 239.898 82.2178C238.871 81.6395 237.195 82.2408 235.5 83.6884C235.444 83.7354 235.389 83.7833 235.334 83.8318C235.15 83.9946 234.872 83.9957 234.688 83.8339V83.8339C232.91 82.2867 231.129 81.6357 230.063 82.2446C229.039 82.8267 228.734 84.5538 229.164 86.7137V86.7137C229.236 87.0708 229.027 87.4285 228.682 87.545C228.648 87.5563 228.615 87.5677 228.582 87.5792C226.496 88.2877 225 89.4059 225 90.5624C225 91.7572 226.594 92.9559 228.762 93.6835V93.6835C229.055 93.7795 229.231 94.0876 229.167 94.3899C229.157 94.4389 229.147 94.488 229.137 94.5375C228.727 96.6629 229.047 98.3479 230.07 98.9262C231.125 99.5236 232.898 98.9109 234.625 97.4288V97.4288C234.859 97.2258 235.211 97.2259 235.446 97.4285C235.486 97.4633 235.526 97.4979 235.566 97.5322C237.238 98.9415 238.891 99.5121 239.91 98.9339C240.965 98.3364 241.309 96.5251 240.863 94.3192C240.853 94.2718 240.843 94.224 240.833 94.176C240.787 93.9672 240.91 93.7556 241.113 93.6912V93.6912C243.367 92.9597 245 91.7764 245 90.5624C245 89.4021 243.461 88.2762 241.336 87.56ZM236.051 84.3087C237.504 83.068 238.859 82.5816 239.477 82.9301C240.137 83.3016 240.391 84.8028 239.977 86.775V86.775C239.931 86.9909 239.718 87.1202 239.502 87.0766C238.911 86.9575 238.315 86.8637 237.717 86.7974C237.426 86.7651 237.161 86.6138 236.986 86.3792C236.676 85.9648 236.349 85.5618 236.007 85.1725C235.783 84.9185 235.794 84.5291 236.051 84.3087V84.3087ZM231.531 92.55V92.55C231.77 92.9496 231.45 93.4597 230.992 93.3804C230.978 93.3781 230.964 93.3757 230.951 93.3734C230.62 93.3154 230.422 92.9772 230.535 92.6608C230.54 92.6455 230.546 92.6303 230.551 92.615C230.708 92.181 231.296 92.1532 231.531 92.55V92.55ZM230.543 88.5218C230.433 88.2131 230.624 87.8822 230.947 87.8235C230.964 87.8204 230.981 87.8173 230.998 87.8143C231.443 87.7345 231.755 88.2259 231.527 88.617V88.617V88.617C231.296 89.0107 230.708 88.9825 230.554 88.5526C230.55 88.5424 230.547 88.5321 230.543 88.5218ZM231.64 91.02C231.497 90.7449 231.496 90.4177 231.639 90.1424C231.834 89.7656 232.04 89.3942 232.254 89.0268C232.47 88.6554 232.699 88.2921 232.938 87.934C233.106 87.6816 233.383 87.5232 233.686 87.5071C234.118 87.4842 234.556 87.472 235 87.472C235.443 87.472 235.883 87.4841 236.313 87.507C236.617 87.5231 236.894 87.6821 237.062 87.9353C237.297 88.2905 237.524 88.6518 237.742 89.0191C237.958 89.3811 238.163 89.7491 238.36 90.1215C238.507 90.4001 238.509 90.7331 238.363 91.0127C238.168 91.3887 237.962 91.7607 237.746 92.1287C237.53 92.4987 237.305 92.8605 237.07 93.2187C236.902 93.4749 236.623 93.6365 236.317 93.6518C235.886 93.6734 235.445 93.6835 235 93.6835C234.557 93.6835 234.124 93.6735 233.702 93.655C233.397 93.6416 233.116 93.4846 232.946 93.2306C232.706 92.872 232.477 92.5072 232.258 92.1364C232.041 91.7687 231.836 91.3971 231.64 91.02ZM238.473 92.5423V92.5423C238.716 92.1313 239.324 92.1624 239.49 92.61V92.61C239.609 92.9298 239.414 93.2812 239.078 93.3431C239.055 93.3475 239.031 93.3518 239.007 93.3561C238.556 93.4374 238.239 92.9368 238.473 92.5423V92.5423ZM239.466 88.5359C239.306 88.9777 238.708 89.0133 238.469 88.6093V88.6093V88.6093C238.241 88.2218 238.551 87.7335 238.993 87.8143C239.017 87.8186 239.04 87.823 239.064 87.8273C239.388 87.8879 239.578 88.2258 239.466 88.5359V88.5359ZM234.608 85.7455C234.821 85.5033 235.195 85.5029 235.408 85.7457C235.418 85.757 235.427 85.7683 235.437 85.7796C235.738 86.126 235.47 86.6497 235.011 86.6496V86.6496C234.549 86.6494 234.28 86.1193 234.585 85.7718C234.592 85.763 234.6 85.7542 234.608 85.7455ZM230.477 82.9569C231.133 82.5816 232.59 83.1178 234.125 84.4504V84.4504C234.291 84.5938 234.297 84.8494 234.15 85.0119C233.751 85.4514 233.374 85.9093 233.018 86.3819C232.843 86.6149 232.579 86.7651 232.289 86.7969C231.763 86.8545 231.239 86.9324 230.718 87.0298C230.384 87.0924 230.056 86.8895 229.984 86.5567V86.5567C229.617 84.7032 229.859 83.3054 230.477 82.9569ZM229.68 92.5708C229.587 92.838 229.303 92.9921 229.035 92.9023V92.9023C228.203 92.6457 227.258 92.2398 226.574 91.7075C226.202 91.4546 225.945 91.0722 225.854 90.6407C225.843 90.5888 225.838 90.5357 225.845 90.4832C225.933 89.7951 227.141 88.9428 228.855 88.3566V88.3566C229.228 88.2283 229.625 88.4452 229.759 88.8164C229.921 89.2686 230.099 89.7153 230.293 90.1544C230.414 90.4265 230.414 90.7368 230.294 91.0089C230.068 91.5206 229.863 92.0422 229.68 92.5708ZM234.074 96.8046C233.43 97.3829 232.684 97.8424 231.871 98.1564C231.46 98.349 230.989 98.3761 230.561 98.2313C230.515 98.2156 230.47 98.1951 230.43 98.1669C229.854 97.7615 229.625 96.4403 229.965 94.683V94.683C230.037 94.3231 230.392 94.1041 230.753 94.1681C231.264 94.2585 231.778 94.3291 232.296 94.3793C232.591 94.4079 232.861 94.5585 233.039 94.7947C233.376 95.2406 233.733 95.6735 234.107 96.0904C234.293 96.2992 234.287 96.6221 234.074 96.8046V96.8046ZM235.44 95.416C235.225 95.6654 234.839 95.6716 234.621 95.4245C234.607 95.4081 234.593 95.3917 234.578 95.3752C234.278 95.0311 234.543 94.5069 235 94.5069V94.5069V94.5069C235.475 94.5069 235.75 95.0559 235.44 95.416V95.416ZM240.137 97.0229C240.103 97.4655 239.891 97.8805 239.55 98.1737C239.512 98.2064 239.471 98.235 239.425 98.2553C238.779 98.5411 237.497 98.0726 236.117 96.9118V96.9118C235.837 96.6766 235.824 96.2535 236.063 95.9764C236.389 95.5972 236.7 95.206 236.995 94.8034C237.172 94.5621 237.442 94.4062 237.74 94.3748C238.318 94.3138 238.893 94.2272 239.465 94.1148C239.726 94.0634 239.986 94.2228 240.039 94.4839V94.4839C240.23 95.3111 240.262 96.1727 240.137 97.0229ZM240.848 92.9061V92.9061C240.662 92.9645 240.469 92.8608 240.405 92.6773C240.206 92.1085 239.979 91.5489 239.727 90.9998C239.599 90.722 239.598 90.4024 239.723 90.1234C239.927 89.6675 240.112 89.2041 240.28 88.7341C240.394 88.4118 240.737 88.2274 241.063 88.3336V88.3336C242.883 88.9463 244.16 89.8578 244.16 90.5548C244.16 91.3054 242.797 92.2742 240.848 92.9061ZM235 92.3317C235.988 92.3317 236.789 91.5466 236.789 90.5777C236.789 89.6089 235.988 88.8238 235 88.8238C234.012 88.8238 233.211 89.6089 233.211 90.5777C233.211 91.5466 234.012 92.3317 235 92.3317Z" fill="#13B8E3"/>
<path d="M149.581 90.8364V90.8029L147.581 88.5979C147.581 88.5979 147.113 88.6515 146.605 89.1039C146.253 89.4155 137.148 97.1163 137.097 97.1766C136.824 97.5117 137.16 97.4044 137.71 97.2335C137.742 97.2335 142.183 96.0071 142.183 96.0071C142.203 95.987 142.179 96.0037 142.206 95.987C142.191 95.816 142.175 95.109 142.167 95.0587C142.144 94.8845 142.253 94.8275 142.441 94.7605L146.058 93.6278C146.081 93.601 149.515 90.89 149.581 90.8364ZM155.835 94.861C156.355 95.4005 156.644 95.3067 157.038 95.1726C157.163 95.1324 161.546 93.5775 161.64 93.534C161.953 93.3899 161.574 92.9744 161.359 92.7498C161.277 92.6661 153.347 84.5197 153.265 84.4292C152.886 84.0204 152.706 83.9969 151.765 84.0003C151.367 84.0003 147.593 84.017 147.214 84.0204C146.464 84.0237 145.929 84.0103 146.464 84.5867C146.765 84.905 155.613 94.6298 155.835 94.861ZM161.8 94.9146C161.71 94.9046 160.839 94.7571 160.316 94.6733C160.316 94.6733 155.824 96.3623 155.726 96.4025C155.101 96.6471 154.675 96.2952 154.292 95.9132L152.062 93.4335C151.851 93.4033 149.703 93.1118 149.511 93.1218C149.39 93.1285 149.136 93.1486 148.949 93.219C148.757 93.2894 143.277 94.9883 143.081 95.052C142.882 95.119 142.636 95.1726 142.648 95.3067C142.656 95.3905 142.726 95.3938 142.828 95.424C142.933 95.4508 154.581 97.6893 154.859 97.7395C155.468 97.8501 156.363 98.0914 156.953 97.7965C157.035 97.7563 161.788 95.2363 161.867 95.1894C162.078 95.0554 162.035 94.9615 161.8 94.9146Z" fill="#13B8E3"/>
</g>
<defs>
<clipPath id="clip0_67_79">
<rect width="298" height="169" rx="84.5" fill="white"/>
</clipPath>
</defs>
</svg>
